Deep Red (1975) Director's Cut

Director: Dario Argento

Profondo Rosso (also known as Deep Red or The Hatchet Murders) is a 1975 giallo film directed by Dario Argento and starring David Hemmings. The soundtrack was composed by Giorgio Gaslini and performed by the band Goblin.

Argento’s films are known for such elaborate scenes of violence and suspense, with meticulous build-up and a visceral study of the mechanics of killing. The murder scenes are generally quite extended: in this film, a female author is knocked on the head, then dragged into a bathroom and drowned in a bath filled with scaldingly hot water. Not long afterward, the psychiatrist has his face bashed against a wall, a mantelpiece and a desk before he is finally killed with a large knife. The doctor, alone in his office, is viewed through a window as if being watched, the jarring soundtrack reaches a crescendo and then, when the killer would be expected to burst upon him he is instead accosted by a large doll that approaches him menacingly from the shadows, apparently of its own free will. While Giordani quickly destroys it, the doll is in fact the murderess' calling card and she appears moments later from behind a curtain.

Profondo Rosso has many minor details that presage later events. The bathtub murder is foreshadowed by an earlier scene when Daly is slightly scalded by an espresso machine; similarly, Daly explains to Gianni that his psychiatrist once explained that his piano playing is symbolic of him bashing his father’s teeth in, and later in the film Giordani suffers exactly that fate. A child’s doll hanging from a noose and a brief cut to a dog fight (with one dog biting the other by the neck, the other carrying a strange, ghastly gaze) foretell Martha’s aforementioned demise at the end of the film, when the heavy neckchain she is wearing becomes entangled in the bars of an elevator that then ascends, lifting her into the air until she is decapitated. The film also marks the introduction of many of Argento's techniques: discordant soundtracks, odd angles, rolling cameras and various lighting techniques.

Media Info:
General
Complete name                    : C:\Documents and Settings\Owner\Desktop\Deep Red (1975) Director's Cut[DVDRip][big_dad_e]\Deep Red [big_dad_e].avi
Format                           : AVI
Format/Info                      : Audio Video Interleave
File size                        : 1.19 GiB
Duration                         : 2h 6mn
Overall bit rate                 : 1 340 Kbps

Video
ID                               : 0
Format                           : MPEG-4 Visual
Format profile                   : Simple@L1
Format settings, BVOP            : No
Format settings, QPel            : No
Format settings, GMC             : No warppoints
Format settings, Matrix          : Default (H.263)
Codec ID                         : DIVX
Codec ID/Info                    : Project Mayo
Codec ID/Hint                    : DivX 4
Duration                         : 2h 6mn
Bit rate                         : 1 199 Kbps
Width                            : 720 pixels
Height                           : 480 pixels
Display aspect ratio             : 16:9
Frame rate                       : 23.976 fps
Standard                         : NTSC
Resolution                       : 24 bits
Colorimetry                      : 4:2:0
Scan type                        : Progressive
Bits/(Pixel*Frame)               : 0.145
Stream size                      : 1.06 GiB (89%)
Writing library                  : avc2.0.11.1110

Audio
ID                               : 1
Format                           : MPEG Audio
Format version                   : Version 1
Format profile                   : Layer 3
Codec ID                         : 55
Codec ID/Hint                    : MP3
Duration                         : 2h 6mn
Bit rate mode                    : Constant
Bit rate                         : 128 Kbps
Channel(s)                       : 2 channels
Sampling rate                    : 48.0 KHz
Resolution                       : 16 bits
Stream size                      : 116 MiB (10%)
Alignment                        : Aligned on interleaves
Interleave, duration             : 24 ms (0.58 video frame)
Writing library                  : LAME3.96.1

File Scan:
Malwarebytes' Anti-Malware 1.46
www.malwarebytes.org

Database version: 4863

Windows 5.1.2600 Service Pack 3
Internet Explorer 8.0.6001.18702

10/17/2010 6:10:50 PM
mbam-log-2010-10-17 (18-10-50).txt

Scan type: Quick scan
Objects scanned: 0
Time elapsed: 17 second(s)

Memory Processes Infected: 0
Memory Modules Infected: 0
Registry Keys Infected: 0
Registry Values Infected: 0
Registry Data Items Infected: 0
Folders Infected: 0
Files Infected: 0

Memory Processes Infected:
(No malicious items detected)

Memory Modules Infected:
(No malicious items detected)

Registry Keys Infected:
(No malicious items detected)

Registry Values Infected:
(No malicious items detected)

Registry Data Items Infected:
(No malicious items detected)

Folders Infected:
(No malicious items detected)

Files Infected:
(No malicious items detected)

When using TPB please read these important notes:
  
01- Anti-malware apps may warn about keygens, patches, cracks, etc., because of 
    their capabilities, (generating codes, etc.). Sometimes they're added to 
    the virus/spyware database and will be detected as malware. If you don't trust
    the keygens, patches, cracks, etc., don't use them. 
    
02- Before running .exe-files, keygens, patches, cracks, etc., always check first 
    if they can be unpacked. Often some third party added a virus to the 
    original file, repacked it and uploaded it again.

03- Letting anti-malware apps send scan results to their companies can cause
    keygens, patches, cracks, etc., to be added to their virus-database.

04- Firewalls which are set to automatically determine connections will allow 
    apps & malware!. Avoid this by manually configuring your firewall.

05- Usually (new) torrents with many downloads and seeders in a brief period is
    suspicious! Torrents with the Skull & Crossbones icon are trusted.

06- Some people use multiple accounts and post fake comments 
    and/or files trying to spread confusion. They seldom seriously
    comment or have any torrents, or a just a few to look passable.

07- Clicking on unknown links can cause malware to be installed on your machine.
  
08- In general often there are more fake and negative comments than reliable and
    positive comments.

09- In some countries uploading/downloading copyright protected material is 
    forbidden, but showing some appreciation to reliable up-loaders is not.

10- Posting fake and negative comments or fake/infected uploads on TPB can result
    in getting banned from TPB!
 

For reporting bad or suspicious torrents:  
http://forum.suprbay.org/forumdisplay.php?fid=29

For more of my torrents: 
https://thepiratebay.org/user/big_dad_e/  (Secured)

All torrents scanned with:
Norton Anti-virus
Malwarebytes' Anti-malware
 
http://www.pirate-party.us/

ALWAYS SEED & THANKS SEEDERS!

